# xmcd
#
# Track frame offsets:
#	150
#	17259
#	33770
#	47893
#	61649
#	78247
#	93256
#	109858
#	130209
#	147256
#	164943
#	180503
#
# Disc length: 2597 seconds
#
# Revision: 3
# Processed by: cddbd v1.4b42PL1 Copyright (c) Steve Scherf et al.
# Submitted via: audiograbber 1.80
#
DISCID=920a230c
DTITLE=Beccy Cole - Beccy Cole
DYEAR=1900
DGENRE=
TTITLE0=Kiss Me Where I Stand
TTITLE1=Rest In Pieces
TTITLE2=Strong Enough To Bend
TTITLE3=Wild Ones
TTITLE4=Big Girls
TTITLE5=Skip A Stone
TTITLE6=Guitar Talk
TTITLE7=Goin Gone
TTITLE8=Bad News For The Blues
TTITLE9=Can I Trade Him In
TTITLE10=Cool World
TTITLE11=Come As You Are
EXTD=
EXTT0=
EXTT1=
EXTT2=
EXTT3=
EXTT4=
EXTT5=
EXTT6=
EXTT7=
EXTT8=
EXTT9=
EXTT10=
EXTT11=
PLAYORDER=
